<svg xmlns="http://www.w3.org/2000/svg" viewBox="0 0 128 128" width="128" height="128">
  <!-- Soft drop shadow -->
  <ellipse cx="64" cy="112" rx="52" ry="12" fill="#000000" opacity="0.2" />
  <!-- Base of the cone -->
  <path d="M12 110 C 12 100, 116 100, 116 110 C 116 116, 12 116, 12 110 Z" fill="#E65C00" />
  <path d="M16 108 C 16 102, 112 102, 112 108 C 112 113, 16 113, 16 108 Z" fill="#FF7000" />
  <path d="M22 106 C 22 101, 106 101, 106 106 C 106 110, 22 110, 22 106 Z" fill="#FF8C33" />
  <!-- Main orange cone body -->
  <path d="M40 102 L52 30 C 52 24, 76 24, 76 30 L88 102 Z" fill="#FF7000" />
  <!-- Topmost tip -->
  <ellipse cx="64" cy="30" rx="12" ry="4" fill="#E65C00" />
  <!-- Top Stripe (White) -->
  <path d="M57 58 L60 38 C 60 35, 68 35, 68 38 L71 58 Z" fill="#FFFFFF" />
  <ellipse cx="64" cy="58" rx="7.2" ry="2.2" fill="#FFFFFF" />
  <ellipse cx="64" cy="38" rx="4.2" ry="1.2" fill="#EAEAEA" />
  <!-- Bottom Stripe (White) -->
  <path d="M48 86 L52 64 C 52 60, 76 60, 76 64 L80 86 Z" fill="#FFFFFF" />
  <ellipse cx="64" cy="86" rx="16" ry="5" fill="#FFFFFF" />
  <ellipse cx="64" cy="64" rx="12" ry="3.8" fill="#EAEAEA" />
</svg>
